<?xml version="1.0" encoding="UTF-8"?>
<svg version="1.1" xmlns="http://www.w3.org/2000/svg" width="167" height="139">
<path d="M0 0 C55.11 0 110.22 0 167 0 C167 45.87 167 91.74 167 139 C111.89 139 56.78 139 0 139 C0 93.13 0 47.26 0 0 Z " fill="#050254" transform="translate(0,0)"/>
<path d="M0 0 C0 0.66 0 1.32 0 2 C0.721875 2.226875 1.44375 2.45375 2.1875 2.6875 C5.68106245 4.31782914 7.58921422 5.98651777 10 9 C10.36760731 11.32817964 10.70241581 13.6618385 11 16 C12.89111111 18.3181362 14.33828031 19.66914015 17 21 C16.505 23.475 16.505 23.475 16 26 C17.32 26.66 18.64 27.32 20 28 C16.30944186 30.49655404 13.40135664 31.43812468 9 32 C7.66262906 32.31674575 6.32711192 32.64270064 5 33 C4.67 32.01 4.34 31.02 4 30 C2.68 31.32 1.36 32.64 0 34 C-0.66 33.34 -1.32 32.68 -2 32 C-2.20753906 32.63808594 -2.41507813 33.27617188 -2.62890625 33.93359375 C-3.58042874 36.48558503 -4.50622576 38.7184428 -6 41 C-9.75 42.0625 -9.75 42.0625 -13 42 C-12.01 39.03 -11.02 36.06 -10 33 C-11.32 33.66 -12.64 34.32 -14 35 C-14 33.35 -14 31.7 -14 30 C-12.35 29.67 -10.7 29.34 -9 29 C-9 28.34 -9 27.68 -9 27 C-7.35 26.34 -5.7 25.68 -4 25 C-6.97 25.495 -6.97 25.495 -10 26 C-10 25.34 -10 24.68 -10 24 C-10.61875 24.495 -11.2375 24.99 -11.875 25.5 C-14 27 -14 27 -16 27 C-16 26.34 -16 25.68 -16 25 C-22.91800917 26.99332468 -25.14231471 28.98654941 -29 35 C-29.66 35 -30.32 35 -31 35 C-31 35.99 -31 36.98 -31 38 C-31.66 38 -32.32 38 -33 38 C-33.268125 38.639375 -33.53625 39.27875 -33.8125 39.9375 C-35 42 -35 42 -38 43 C-40.6875 41.5625 -40.6875 41.5625 -43 40 C-41.96929376 24.75639713 -41.96929376 24.75639713 -37.6875 20.9375 C-36.800625 20.298125 -35.91375 19.65875 -35 19 C-32.79459949 16.85114822 -30.61572896 14.71006069 -28.59765625 12.3828125 C-25.72686843 9.19981699 -24.47507111 8.10727412 -20.125 7.125 C-18.578125 7.063125 -18.578125 7.063125 -17 7 C-16.92007813 6.39929687 -16.84015625 5.79859375 -16.7578125 5.1796875 C-15.49661099 1.5521079 -12.69815699 0.55830984 -9.43359375 -1.16015625 C-5.62183075 -2.47561218 -3.60974997 -1.61286701 0 0 Z " fill="#64DAE1" transform="translate(97,23)"/>
<path d="M0 0 C1.3125 2.1875 1.3125 2.1875 1.3125 4.1875 C0.1875 5.8125 0.1875 5.8125 -1.6875 7.1875 C-3.68704746 7.23004356 -5.68791636 7.22830783 -7.6875 7.1875 C-9.9375 7.6875 -9.9375 7.6875 -11.6875 9.1875 C-12.10773438 10.11304688 -12.52796875 11.03859375 -12.9609375 11.9921875 C-14.91226821 15.60347375 -16.8591499 17.24143588 -20.125 19.6875 C-25.25262957 23.71925096 -28.336421 26.77006488 -30.75 32.875 C-31.77719465 35.4087468 -32.50766016 36.55262012 -34.6875 38.1875 C-37.875 39.375 -37.875 39.375 -40.6875 40.1875 C-43.53742511 31.77507047 -42.09427863 26.16357448 -38.55859375 18.3515625 C-35.82649545 13.73152154 -32.14527731 10.47413583 -28.0625 7.0625 C-26.34076811 5.62123122 -24.72288254 4.22566128 -23.1953125 2.578125 C-18.99461307 -1.2960952 -10.59934519 -1.4696791 -5.12109375 -1.91796875 C-2.6875 -1.8125 -2.6875 -1.8125 0 0 Z " fill="#EEDE9F" transform="translate(85.6875,16.8125)"/>
<path d="M0 0 C3 5.75 3 5.75 3 8 C3.78375 7.95875 4.5675 7.9175 5.375 7.875 C8 8 8 8 10 10 C9.61121812 13.01305957 8.73543126 14.39685311 7 17 C7 16.34 7 15.68 7 15 C6.38125 15.495 5.7625 15.99 5.125 16.5 C3 18 3 18 1 18 C1 17.34 1 16.68 1 16 C-5.91800917 17.99332468 -8.14231471 19.98654941 -12 26 C-12.66 26 -13.32 26 -14 26 C-14 26.99 -14 27.98 -14 29 C-14.66 29 -15.32 29 -16 29 C-16.268125 29.639375 -16.53625 30.27875 -16.8125 30.9375 C-18 33 -18 33 -21 34 C-23.6875 32.5625 -23.6875 32.5625 -26 31 C-24.96929376 15.75639713 -24.96929376 15.75639713 -20.6875 11.9375 C-19.800625 11.298125 -18.91375 10.65875 -18 10 C-15.41263695 7.47732103 -12.9837597 4.98024828 -10.6875 2.1875 C-6.92549472 -0.87459732 -4.74419687 -0.40205058 0 0 Z " fill="#DD841B" transform="translate(80,32)"/>
<path d="M0 0 C-0.66 0.66 -1.32 1.32 -2 2 C-2.99 2 -3.98 2 -5 2 C-4.67 3.32 -4.34 4.64 -4 6 C-3.01 5.67 -2.02 5.34 -1 5 C-0.73781251 8.14624993 -0.75245633 9.61837017 -2.5 12.3125 C-2.995 12.869375 -3.49 13.42625 -4 14 C-0.535 13.505 -0.535 13.505 3 13 C3.103125 12.484375 3.20625 11.96875 3.3125 11.4375 C4.24263866 8.13973565 5.61395512 5.13366668 7 2 C7.99 2.66 8.98 3.32 10 4 C10.99 3.01 11.98 2.02 13 1 C13.33 2.32 13.66 3.64 14 5 C15.051875 4.484375 16.10375 3.96875 17.1875 3.4375 C20.50521174 2.00698866 22.49762871 1.79918699 26 3 C26.66 3.33 27.32 3.66 28 4 C28 4.66 28 5.32 28 6 C26.02 6.99 26.02 6.99 24 8 C25.32 8 26.64 8 28 8 C28 8.66 28 9.32 28 10 C23.37802694 12.21854707 20.23175837 13.38281159 15 13 C15.2475 14.670625 15.2475 14.670625 15.5 16.375 C16.12094505 21.25510338 16.09057874 26.08861948 16 31 C12.29728692 28.68580433 9.33796371 26.34424006 6.25 23.25 C3.88999389 21.10700594 2.67215008 20.0728336 -0.5234375 19.7265625 C-2.23378625 19.82414997 -3.94352669 19.9331951 -5.65234375 20.0546875 C-8.3162715 19.99263261 -9.52933114 19.53224982 -11.6875 18 C-14 15 -14 15 -14.375 11.125 C-13.42267533 6.57115658 -10.63704682 4.18587209 -7.203125 1.25 C-4.60306531 -0.22521117 -2.94301957 -0.24696668 0 0 Z " fill="#265186" transform="translate(88,51)"/>
<path d="M0 0 C6.75 1.625 6.75 1.625 9 5 C7.68 4.67 6.36 4.34 5 4 C5.144375 5.299375 5.28875 6.59875 5.4375 7.9375 C5.55931641 9.03384766 5.55931641 9.03384766 5.68359375 10.15234375 C5.81886614 12.01140229 5.81886614 12.01140229 7 13 C7 11.35 7 9.7 7 8 C7.66 8 8.32 8 9 8 C9.29003906 9.04800781 9.29003906 9.04800781 9.5859375 10.1171875 C9.97652344 11.48230469 9.97652344 11.48230469 10.375 12.875 C10.63023438 13.77992187 10.88546875 14.68484375 11.1484375 15.6171875 C11.8604315 18.14569726 11.8604315 18.14569726 14 20 C16.06874034 20.6425235 16.06874034 20.6425235 18 21 C18.33 20.01 18.66 19.02 19 18 C19.91397824 23.68697571 19.91397824 28.31302429 19 34 C18.34 34 17.68 34 17 34 C16.67 32.68 16.34 31.36 16 30 C15.32041397 32.39719432 15.32041397 32.39719432 15 35 C15.66 35.66 16.32 36.32 17 37 C16.01 37.99 15.02 38.98 14 40 C14 38.68 14 37.36 14 36 C12.68 36.99 11.36 37.98 10 39 C10 36 10 36 11 35 C10.01 34.34 9.02 33.68 8 33 C8.66 31.35 9.32 29.7 10 28 C9.21625 27.731875 8.4325 27.46375 7.625 27.1875 C5 26 5 26 3 23 C2.938125 21.906875 2.87625 20.81375 2.8125 19.6875 C1.82436973 15.2029088 0.32964556 14.04117834 -3.2109375 11.359375 C-4.99968137 10.0002421 -6.5534644 8.72164359 -8 7 C-8 6.01 -8 5.02 -8 4 C-4.91190305 2.23537317 -3.76687864 2 0 2 C0 1.34 0 0.68 0 0 Z " fill="#171660" transform="translate(104,16)"/>
<path d="M0 0 C0 0.66 0 1.32 0 2 C0.721875 2.20625 1.44375 2.4125 2.1875 2.625 C5.9255306 4.45248163 7.49246917 6.70438806 10 10 C9.21625 10.598125 8.4325 11.19625 7.625 11.8125 C4.85425677 13.91085249 4.85425677 13.91085249 3 17 C1.35 16.34 -0.3 15.68 -2 15 C-2 16.32 -2 17.64 -2 19 C-4.375 19.625 -4.375 19.625 -7 20 C-7.66 19.34 -8.32 18.68 -9 18 C-10.2065625 17.9071875 -10.2065625 17.9071875 -11.4375 17.8125 C-12.283125 17.544375 -13.12875 17.27625 -14 17 C-14.45375 15.845 -14.9075 14.69 -15.375 13.5 C-15.91125 12.345 -16.4475 11.19 -17 10 C-20.58863524 8.9384058 -20.58863524 8.9384058 -24 9 C-24 8.67 -24 8.34 -24 8 C-20.535 7.505 -20.535 7.505 -17 7 C-16.92007813 6.39929687 -16.84015625 5.79859375 -16.7578125 5.1796875 C-15.49661099 1.5521079 -12.69815699 0.55830984 -9.43359375 -1.16015625 C-5.62183075 -2.47561218 -3.60974997 -1.61286701 0 0 Z " fill="#55D6DE" transform="translate(97,23)"/>
<path d="M0 0 C3 5.75 3 5.75 3 8 C3.78375 7.95875 4.5675 7.9175 5.375 7.875 C8 8 8 8 10 10 C9.61121812 13.01305957 8.73543126 14.39685311 7 17 C7 16.34 7 15.68 7 15 C6.38125 15.495 5.7625 15.99 5.125 16.5 C3 18 3 18 1 18 C1 17.34 1 16.68 1 16 C-1.475 15.505 -1.475 15.505 -4 15 C-4 12.36 -4 9.72 -4 7 C-4.515625 7.9075 -5.03125 8.815 -5.5625 9.75 C-8.03556267 13.51762616 -11.01682961 15.0084148 -15 17 C-16.32 15.68 -17.64 14.36 -19 13 C-16.06811023 4.18889968 -9.27991735 -1.34980616 0 0 Z " fill="#F3E6B9" transform="translate(80,32)"/>
<path d="M0 0 C3 1 3 1 4 3 C4.99 3.33 5.98 3.66 7 4 C7 4.66 7 5.32 7 6 C7.66 6.33 8.32 6.66 9 7 C8.25 13.75 8.25 13.75 6 16 C5.690625 16.804375 5.38125 17.60875 5.0625 18.4375 C3.9605024 21.09525891 3.28093986 22.2892951 1 24 C-2.1875 25.1875 -2.1875 25.1875 -5 26 C-7.92939192 17.35299975 -6.24898921 11.72441203 -2.48046875 3.7734375 C-1 1 -1 1 0 0 Z " fill="#F0DE97" transform="translate(50,31)"/>
<path d="M0 0 C-0.66 0.66 -1.32 1.32 -2 2 C-2.99 2 -3.98 2 -5 2 C-4.67 3.32 -4.34 4.64 -4 6 C-3.01 5.67 -2.02 5.34 -1 5 C-0.73781251 8.14624993 -0.75245633 9.61837017 -2.5 12.3125 C-2.995 12.869375 -3.49 13.42625 -4 14 C-1.36 14.33 1.28 14.66 4 15 C3.0625 17.5 3.0625 17.5 1 20 C-2.82472463 20.97492981 -6.33672865 20.72373883 -9.95703125 19.1484375 C-11.625 18 -11.625 18 -14 15 C-14.43993102 10.45404614 -14.19054429 8.45389049 -11.3046875 4.9296875 C-7.52149304 1.37664936 -5.35022771 -0.44897016 0 0 Z " fill="#D83137" transform="translate(88,51)"/>
<path d="M0 0 C6.75 1.625 6.75 1.625 9 5 C7.68 4.67 6.36 4.34 5 4 C5.144375 5.299375 5.28875 6.59875 5.4375 7.9375 C5.55931641 9.03384766 5.55931641 9.03384766 5.68359375 10.15234375 C5.81886614 12.01140229 5.81886614 12.01140229 7 13 C7 11.35 7 9.7 7 8 C7.66 8 8.32 8 9 8 C9.66 11.3 10.32 14.6 11 18 C10.34 18 9.68 18 9 18 C8.67 19.65 8.34 21.3 8 23 C7.67 22.01 7.34 21.02 7 20 C7.33 19.34 7.66 18.68 8 18 C6.7315625 17.690625 6.7315625 17.690625 5.4375 17.375 C1.14141304 15.65656521 -1.68072726 13.15853314 -5 10 C-5.56332031 9.50371094 -6.12664062 9.00742187 -6.70703125 8.49609375 C-8 7 -8 7 -8 4 C-4.91190305 2.23537317 -3.76687864 2 0 2 C0 1.34 0 0.68 0 0 Z " fill="#14125D" transform="translate(104,16)"/>
<path d="M0 0 C1.3125 2.1875 1.3125 2.1875 1.3125 4.1875 C0.1875 5.8125 0.1875 5.8125 -1.6875 7.1875 C-4.5625 7.3125 -4.5625 7.3125 -7.6875 7.1875 C-8.615625 7.373125 -9.54375 7.55875 -10.5 7.75 C-11.221875 7.894375 -11.94375 8.03875 -12.6875 8.1875 C-13.0175 7.8575 -13.3475 7.5275 -13.6875 7.1875 C-15.70344582 6.95322222 -17.725974 6.77413876 -19.75 6.625 C-20.85472656 6.54121094 -21.95945313 6.45742188 -23.09765625 6.37109375 C-24.37962891 6.28021484 -24.37962891 6.28021484 -25.6875 6.1875 C-24.71362229 3.63436113 -24.1726515 2.43339871 -21.69140625 1.17578125 C-5.0760151 -3.42335902 -5.0760151 -3.42335902 0 0 Z " fill="#56D2DB" transform="translate(85.6875,16.8125)"/>
<path d="M0 0 C2.29633824 3.44450737 2.54016485 5.93812283 3 10 C-3.60967479 14.65681633 -10.0503534 15 -18 15 C-17.3125 12.5625 -17.3125 12.5625 -16 10 C-13.375 9.1875 -13.375 9.1875 -11 9 C-11.33 7.35 -11.66 5.7 -12 4 C-10.02 4.66 -8.04 5.32 -6 6 C-5.071875 4.7934375 -5.071875 4.7934375 -4.125 3.5625 C-2 1 -2 1 0 0 Z " fill="#2C759E" transform="translate(106,33)"/>
<path d="M0 0 C0.99 0 1.98 0 3 0 C3.66 1.32 4.32 2.64 5 4 C5.33 2.68 5.66 1.36 6 0 C7.32 0 8.64 0 10 0 C10.66 1.65 11.32 3.3 12 5 C12.66 3.35 13.32 1.7 14 0 C14.99 0 15.98 0 17 0 C16.01 3.96 15.02 7.92 14 12 C12.68 12 11.36 12 10 12 C9.34 10.02 8.68 8.04 8 6 C7.34 7.98 6.68 9.96 6 12 C4.68 12 3.36 12 2 12 C0.70756464 7.8803623 -0.26252625 4.33168317 0 0 Z " fill="#E0E1EC" transform="translate(103,89)"/>
<path d="M0 0 C1.32 0.33 2.64 0.66 4 1 C5.25 3.5625 5.25 3.5625 6 6 C6.598125 5.01 7.19625 4.02 7.8125 3 C8.8953125 1.515 8.8953125 1.515 10 0 C10.99 0 11.98 0 13 0 C13 3.96 13 7.92 13 12 C12.01 12 11.02 12 10 12 C9.67 11.01 9.34 10.02 9 9 C8.67 9.99 8.34 10.98 8 12 C7.01 12 6.02 12 5 12 C4.67 11.34 4.34 10.68 4 10 C3.67 10.66 3.34 11.32 3 12 C2.01 12 1.02 12 0 12 C0 8.04 0 4.08 0 0 Z " fill="#D2D3E3" transform="translate(22,89)"/>
<path d="M0 0 C0.99 0.33 1.98 0.66 3 1 C-2.14285714 5.42857143 -2.14285714 5.42857143 -6 6 C-6.33 7.65 -6.66 9.3 -7 11 C-7.969375 11 -8.93875 11 -9.9375 11 C-17.65114568 12.07959747 -23.485715 20.17511613 -28 26 C-28.66 25.67 -29.32 25.34 -30 25 C-27.23100101 19.67716072 -23.31422755 16.92560914 -18.59375 13.37890625 C-15.77176108 10.79066641 -14.63373653 8.41989164 -13 5 C-9.9241809 3.49481193 -8.02021315 2.83891371 -4.625 3.375 C-4.08875 3.58125 -3.5525 3.7875 -3 4 C-2.67 3.01 -2.34 2.02 -2 1 C-1.34 0.67 -0.68 0.34 0 0 Z " fill="#428FAD" transform="translate(87,20)"/>
<path d="M0 0 C1.32 0.33 2.64 0.66 4 1 C5.25 3.5625 5.25 3.5625 6 6 C6.66 5.01 7.32 4.02 8 3 C8.66 2.01 9.32 1.02 10 0 C10.99 0 11.98 0 13 0 C13 3.96 13 7.92 13 12 C12.01 12 11.02 12 10 12 C9.67 11.34 9.34 10.68 9 10 C8.67 10.66 8.34 11.32 8 12 C7.01 12 6.02 12 5 12 C4.67 11.34 4.34 10.68 4 10 C3.67 10.66 3.34 11.32 3 12 C2.01 12 1.02 12 0 12 C0 8.04 0 4.08 0 0 Z " fill="#DCDDEA" transform="translate(38,89)"/>
<path d="M0 0 C-0.66 0 -1.32 0 -2 0 C-2 1.32 -2 2.64 -2 4 C-3.65 3.34 -5.3 2.68 -7 2 C-7 2.99 -7 3.98 -7 5 C-6.01 5.33 -5.02 5.66 -4 6 C-5.23697917 7.43229167 -6.47395833 8.86458333 -7.7109375 10.296875 C-9.10020258 11.97937777 -9.10020258 11.97937777 -9.875 14.15625 C-11 16 -11 16 -13.1640625 16.609375 C-13.97617188 16.65578125 -14.78828125 16.7021875 -15.625 16.75 C-16.44226563 16.80671875 -17.25953125 16.8634375 -18.1015625 16.921875 C-18.72804687 16.94765625 -19.35453125 16.9734375 -20 17 C-18.625 14.5 -18.625 14.5 -17 12 C-16.34 12 -15.68 12 -15 12 C-15 11.01 -15 10.02 -15 9 C-14.34 9 -13.68 9 -13 9 C-12.773125 8.443125 -12.54625 7.88625 -12.3125 7.3125 C-9.36388443 2.11732019 -5.99889571 -1.79966871 0 0 Z " fill="#641440" transform="translate(81,49)"/>
<path d="M0 0 C0.33 0 0.66 0 1 0 C1.797837 6.69613196 2.12910853 13.25766581 2 20 C-2.17383395 16.07168569 -5.89394426 11.83520017 -9 7 C-9 6.34 -9 5.68 -9 5 C-8.43410156 4.80664062 -7.86820312 4.61328125 -7.28515625 4.4140625 C-6.55167969 4.15367188 -5.81820312 3.89328125 -5.0625 3.625 C-3.96615234 3.24214844 -3.96615234 3.24214844 -2.84765625 2.8515625 C-0.81317884 2.14728587 -0.81317884 2.14728587 0 0 Z " fill="#4BA6BE" transform="translate(102,62)"/>
<path d="M0 0 C1.41377341 2.63904371 2.37240135 5.07120629 3 8 C2.34 8 1.68 8 1 8 C1 8.99 1 9.98 1 11 C0.34 11 -0.32 11 -1 11 C-1.268125 11.639375 -1.53625 12.27875 -1.8125 12.9375 C-3 15 -3 15 -6 16 C-8.6875 14.5625 -8.6875 14.5625 -11 13 C-10.67 10.03 -10.34 7.06 -10 4 C-9.34 5.32 -8.68 6.64 -8 8 C-6.11341126 8.03525132 -6.11341126 8.03525132 -4 7 C-2.40498463 4.75835678 -1.25456982 2.46433357 0 0 Z " fill="#CD3D3E" transform="translate(65,50)"/>
<path d="M0 0 C-0.433125 0.8353125 -0.433125 0.8353125 -0.875 1.6875 C-2.05168479 4.00643088 -2.05168479 4.00643088 -2.9375 6.5625 C-4.05283248 9.12120393 -4.78017819 10.33513364 -7 12 C-10.1875 13.1875 -10.1875 13.1875 -13 14 C-13.33 11.36 -13.66 8.72 -14 6 C-11.03 6.495 -11.03 6.495 -8 7 C-8.33 5.02 -8.66 3.04 -9 1 C-5.64919071 -1.10976881 -3.77897651 -1.0497157 0 0 Z " fill="#B92729" transform="translate(58,43)"/>
<path d="M0 0 C-0.57344937 2.86724686 -0.8614515 3.8614515 -3 6 C-3.66 5.34 -4.32 4.68 -5 4 C-5.31130859 4.95712891 -5.31130859 4.95712891 -5.62890625 5.93359375 C-6.58042874 8.48558503 -7.50622576 10.7184428 -9 13 C-12.75 14.0625 -12.75 14.0625 -16 14 C-15.690625 13.484375 -15.38125 12.96875 -15.0625 12.4375 C-13.70940713 9.33334577 -13.38640576 6.34884993 -13 3 C-11.88625 2.814375 -11.88625 2.814375 -10.75 2.625 C-8.04077127 2.12955263 -8.04077127 2.12955263 -5.9375 0.9375 C-4 0 -4 0 0 0 Z " fill="#42AEC3" transform="translate(100,51)"/>
<path d="M0 0 C2.51368596 0.46932744 4.60522638 1.08770529 7 2 C6.67 2.66 6.34 3.32 6 4 C3.03 3.67 0.06 3.34 -3 3 C-3 2.34 -3 1.68 -3 1 C-3.99 1.495 -3.99 1.495 -5 2 C-3.02 2.66 -1.04 3.32 1 4 C0.01 5.485 0.01 5.485 -1 7 C-2.64671412 6.69217504 -4.29235576 6.37860766 -5.9375 6.0625 C-6.85402344 5.88847656 -7.77054688 5.71445312 -8.71484375 5.53515625 C-11 5 -11 5 -12 4 C-14.33297433 3.95907063 -16.66705225 3.95758277 -19 4 C-13.24679364 -1.49268381 -7.54316742 -0.6055295 0 0 Z " fill="#1B1861" transform="translate(95,12)"/>
<path d="M0 0 C0.66 1.32 1.32 2.64 2 4 C-0.64 4 -3.28 4 -6 4 C-6 5.32 -6 6.64 -6 8 C-3.36 8 -0.72 8 2 8 C1 11 1 11 -1 12 C-3.9375 12.3125 -3.9375 12.3125 -7 12 C-9.35210784 9.88310295 -9.91810953 8.55958485 -10.375 5.4375 C-10 3 -10 3 -8.9375 1.1875 C-6.00731249 -0.60842137 -3.3527047 -0.18977574 0 0 Z " fill="#D6D7E6" transform="translate(87,89)"/>
<path d="M0 0 C0.99 0 1.98 0 3 0 C3 1.65 3 3.3 3 5 C4.32 5 5.64 5 7 5 C7 3.35 7 1.7 7 0 C7.99 0 8.98 0 10 0 C10 3.96 10 7.92 10 12 C9.01 12 8.02 12 7 12 C7 10.35 7 8.7 7 7 C5.68 7 4.36 7 3 7 C3 8.65 3 10.3 3 12 C2.01 12 1.02 12 0 12 C0 8.04 0 4.08 0 0 Z " fill="#DFE1EC" transform="translate(91,89)"/>
<path d="M0 0 C0.66 2.97 1.32 5.94 2 9 C-0.31 10.32 -2.62 11.64 -5 13 C-6.32 11.68 -7.64 10.36 -9 9 C-7.67183131 4.6532661 -5.0855272 0 0 0 Z " fill="#F1E3AD" transform="translate(70,36)"/>
<path d="M0 0 C3.3 0 6.6 0 10 0 C10.33 1.32 10.66 2.64 11 4 C9.5625 6.25 9.5625 6.25 8 8 C8 7.34 8 6.68 8 6 C7.38125 6.495 6.7625 6.99 6.125 7.5 C4 9 4 9 2 9 C0.3125 6.75 0.3125 6.75 -1 4 C-0.67 2.68 -0.34 1.36 0 0 Z " fill="#DC9425" transform="translate(79,41)"/>
<path d="M0 0 C2.31 0 4.62 0 7 0 C7.33 0.99 7.66 1.98 8 3 C5.03 2.505 5.03 2.505 2 2 C3.37691962 4.75383923 5.36720042 5.51483101 8 7 C7.125 10.875 7.125 10.875 6 12 C4.33382885 12.04063832 2.66611905 12.042721 1 12 C0.34 10.68 -0.32 9.36 -1 8 C1.16874252 8.50603992 2.99967627 8.99983813 5 10 C3.62308038 7.24616077 1.63279958 6.48516899 -1 5 C-0.67 3.35 -0.34 1.7 0 0 Z " fill="#D4D5E4" transform="translate(127,89)"/>
<path d="M0 0 C1.98 0 3.96 0 6 0 C6.75 2.625 6.75 2.625 7 6 C5.0625 9.375 5.0625 9.375 3 12 C2.67 11.34 2.34 10.68 2 10 C1.34 10 0.68 10 0 10 C-2.21538462 4.58461538 -2.21538462 4.58461538 -1.125 1.625 C-0.75375 1.08875 -0.3825 0.5525 0 0 Z " fill="#E26D1D" transform="translate(57,48)"/>
<path d="M0 0 C-0.66 0 -1.32 0 -2 0 C-2 0.66 -2 1.32 -2 2 C-3.5 3.625 -3.5 3.625 -5 5 C-3.35 5.33 -1.7 5.66 0 6 C-0.33 6.66 -0.66 7.32 -1 8 C-1.99 7.67 -2.98 7.34 -4 7 C-6.05893621 6.77674186 -8.12233653 6.59294241 -10.1875 6.4375 C-11.27417969 6.35371094 -12.36085937 6.26992188 -13.48046875 6.18359375 C-14.31191406 6.12300781 -15.14335938 6.06242187 -16 6 C-14.99165688 3.26387795 -14.43210006 2.20852216 -11.7578125 0.91796875 C-10.45457031 0.55638672 -10.45457031 0.55638672 -9.125 0.1875 C-8.26132813 -0.06644531 -7.39765625 -0.32039063 -6.5078125 -0.58203125 C-3.94195142 -1.00967476 -2.43603141 -0.83278283 0 0 Z " fill="#86D2DD" transform="translate(76,17)"/>
<path d="M0 0 C0.680625 0.12375 1.36125 0.2475 2.0625 0.375 C1.4025 1.035 0.7425 1.695 0.0625 2.375 C-0.9275 2.375 -1.9175 2.375 -2.9375 2.375 C-2.6075 3.695 -2.2775 5.015 -1.9375 6.375 C-0.9475 6.045 0.0425 5.715 1.0625 5.375 C1.25 7.75 1.25 7.75 1.0625 10.375 C0.0725 11.035 -0.9175 11.695 -1.9375 12.375 C-2.2675 11.055 -2.5975 9.735 -2.9375 8.375 C-4.2575 8.375 -5.5775 8.375 -6.9375 8.375 C-6.9375 9.035 -6.9375 9.695 -6.9375 10.375 C-7.5975 10.375 -8.2575 10.375 -8.9375 10.375 C-9.2675 9.055 -9.5975 7.735 -9.9375 6.375 C-3.86310175 0.49316193 -3.86310175 0.49316193 0 0 Z " fill="#D8454B" transform="translate(85.9375,50.625)"/>
<path d="M0 0 C2.64 0 5.28 0 8 0 C8 0.66 8 1.32 8 2 C6.35 2 4.7 2 3 2 C3 2.99 3 3.98 3 5 C4.32 5 5.64 5 7 5 C7 5.66 7 6.32 7 7 C5.68 7 4.36 7 3 7 C3 7.99 3 8.98 3 10 C4.65 10 6.3 10 8 10 C8 10.66 8 11.32 8 12 C5.36 12 2.72 12 0 12 C0 8.04 0 4.08 0 0 Z " fill="#DBDCE9" transform="translate(68,89)"/>
<path d="M0 0 C0.33 0.99 0.66 1.98 1 3 C-3.44381694 7.58716587 -8.20228499 11.78762713 -13 16 C-13.61328125 14.13671875 -13.61328125 14.13671875 -14 12 C-12.14944202 9.76656796 -10.59616917 8.29808458 -8 7 C-8 6.01 -8 5.02 -8 4 C-6.576875 3.566875 -6.576875 3.566875 -5.125 3.125 C-1.94788422 2.23174891 -1.94788422 2.23174891 0 0 Z " fill="#C74426" transform="translate(72,26)"/>
<path d="M0 0 C6.75 1.625 6.75 1.625 9 5 C6.03 4.67 3.06 4.34 0 4 C0 4.66 0 5.32 0 6 C-0.99 6 -1.98 6 -3 6 C-3 7.32 -3 8.64 -3 10 C-4.32 9.67 -5.64 9.34 -7 9 C-7.33 7.35 -7.66 5.7 -8 4 C-4.91190305 2.23537317 -3.76687864 2 0 2 C0 1.34 0 0.68 0 0 Z " fill="#14115C" transform="translate(104,16)"/>
<path d="M0 0 C2.29633824 3.44450737 2.54016485 5.93812283 3 10 C0.09905209 11.45047396 -1.55972596 10.45356803 -4.625 9.5625 C-6.12933594 9.13130859 -6.12933594 9.13130859 -7.6640625 8.69140625 C-8.43492188 8.46324219 -9.20578125 8.23507813 -10 8 C-9.38382812 7.72285156 -8.76765625 7.44570313 -8.1328125 7.16015625 C-5.32882275 5.63490908 -3.92934419 3.50814745 -2 1 C-1.34 0.67 -0.68 0.34 0 0 Z " fill="#4B92B2" transform="translate(106,33)"/>
<path d="M0 0 C0.33 0 0.66 0 1 0 C1 3.96 1 7.92 1 12 C0.34 11.01 -0.32 10.02 -1 9 C-2.97747122 8.63702064 -2.97747122 8.63702064 -5.125 8.8125 C-6.40375 8.874375 -7.6825 8.93625 -9 9 C-9.33 7.35 -9.66 5.7 -10 4 C-6.30458414 3.04975021 -3.69541586 3.04975021 0 4 C0 2.68 0 1.36 0 0 Z " fill="#1B1862" transform="translate(90,89)"/>
<path d="M0 0 C4.29 0.33 8.58 0.66 13 1 C12.67 2.32 12.34 3.64 12 5 C11.01 4.67 10.02 4.34 9 4 C9 4.99 9 5.98 9 7 C7.35 7.33 5.7 7.66 4 8 C0 2.25 0 2.25 0 0 Z " fill="#53CDD6" transform="translate(86,35)"/>
<path d="M0 0 C2.31 0 4.62 0 7 0 C7 0.66 7 1.32 7 2 C5.68 2 4.36 2 3 2 C3 2.99 3 3.98 3 5 C4.32 5 5.64 5 7 5 C7 5.66 7 6.32 7 7 C5.68 7 4.36 7 3 7 C3 7.99 3 8.98 3 10 C4.32 10 5.64 10 7 10 C7 10.66 7 11.32 7 12 C4.69 12 2.38 12 0 12 C0 8.04 0 4.08 0 0 Z " fill="#E8EAF2" transform="translate(137,89)"/>
<path d="M0 0 C2.64 0.33 5.28 0.66 8 1 C8.66 2.65 9.32 4.3 10 6 C9.01 6.33 8.02 6.66 7 7 C7 7.99 7 8.98 7 10 C3.32553433 9.29337199 0.26087791 7.81159884 -3 6 C-3.33 5.34 -3.66 4.68 -4 4 C-3.36191406 4.08378906 -2.72382812 4.16757812 -2.06640625 4.25390625 C-0.82697266 4.40666016 -0.82697266 4.40666016 0.4375 4.5625 C1.26121094 4.66691406 2.08492188 4.77132813 2.93359375 4.87890625 C3.61550781 4.91886719 4.29742187 4.95882813 5 5 C5.33 4.67 5.66 4.34 6 4 C5.195625 3.71125 4.39125 3.4225 3.5625 3.125 C1 2 1 2 0 0 Z " fill="#0E0D5A" transform="translate(89,13)"/>
<path d="M0 0 C2.475 0.495 2.475 0.495 5 1 C5 1.99 5 2.98 5 4 C5.33 3.01 5.66 2.02 6 1 C6.66 1 7.32 1 8 1 C8.625 2.875 8.625 2.875 9 5 C8.34 5.66 7.68 6.32 7 7 C7 7.99 7 8.98 7 10 C4.625 9.6875 4.625 9.6875 2 9 C-0.29013653 5.5647952 -0.17842973 4.014669 0 0 Z " fill="#0E0D59" transform="translate(107,33)"/>
<path d="M0 0 C2.475 0.495 2.475 0.495 5 1 C5 1.66 5 2.32 5 3 C6.32 3.66 7.64 4.32 9 5 C8.67 5.66 8.34 6.32 8 7 C7.34 7 6.68 7 6 7 C6.7734375 8.175625 6.7734375 8.175625 7.5625 9.375 C8.036875 10.24125 8.51125 11.1075 9 12 C8.67 12.66 8.34 13.32 8 14 C6.02 13.01 4.04 12.02 2 11 C2.33 8.69 2.66 6.38 3 4 C2.34 4 1.68 4 1 4 C0.67 2.68 0.34 1.36 0 0 Z " fill="#48C0CF" transform="translate(92,22)"/>
<path d="M0 0 C1.15941038 3.47823115 0.70820884 5.45895578 0 9 C0.66 9.33 1.32 9.66 2 10 C-2.32734391 12.22923777 -5.28400182 11.92470553 -10 11 C-8.71034824 9.62437146 -7.37310707 8.29233607 -6 7 C-5.34 7 -4.68 7 -4 7 C-3.71125 6.21625 -3.4225 5.4325 -3.125 4.625 C-2 2 -2 2 0 0 Z " fill="#E29629" transform="translate(76,38)"/>
<path d="M0 0 C2.49310643 3.73965964 2.0603261 5.29070641 1.625 9.6875 C1.51414062 10.86699219 1.40328125 12.04648437 1.2890625 13.26171875 C1.19367188 14.16535156 1.09828125 15.06898437 1 16 C0.34 16 -0.32 16 -1 16 C-1 13.36 -1 10.72 -1 8 C-2.65 8.33 -4.3 8.66 -6 9 C-5.34 7.02 -4.68 5.04 -4 3 C-2.68 3 -1.36 3 0 3 C0 2.01 0 1.02 0 0 Z " fill="#14125D" transform="translate(122,34)"/>
<path d="M0 0 C-1.12436254 3.37308761 -2.07342733 4.15123097 -4.75 6.375 C-7.98867934 9.12209408 -11.03598276 11.95364895 -14 15 C-15.33333333 16.33333333 -16.66666667 17.66666667 -18 19 C-18.66 18.67 -19.32 18.34 -20 18 C-17.8002403 13.80045875 -15.28558926 11.34221686 -11.5625 8.4375 C-8.82077528 6.28515284 -6.21282213 4.21805853 -3.77734375 1.72265625 C-2 0 -2 0 0 0 Z " fill="#2D306A" transform="translate(77,27)"/>
<path d="M0 0 C0.99 0.33 1.98 0.66 3 1 C5.00875442 0.72428861 7.01178687 0.39764263 9 0 C8 2 8 2 5.85546875 2.74609375 C4.08477607 3.20497018 2.31394384 3.66330846 0.54296875 4.12109375 C-2.06557482 4.8772033 -2.06557482 4.8772033 -4.15234375 6.6171875 C-6 8 -6 8 -8.75 7.6875 C-9.4925 7.460625 -10.235 7.23375 -11 7 C-11 6.01 -11 5.02 -11 4 C-8.525 4.99 -8.525 4.99 -6 6 C-6 4.68 -6 3.36 -6 2 C-4.7934375 1.7834375 -4.7934375 1.7834375 -3.5625 1.5625 C-1.07896294 1.25864751 -1.07896294 1.25864751 0 0 Z " fill="#3F1853" transform="translate(85,47)"/>
<path d="M0 0 C1.32 0 2.64 0 4 0 C4.66 3.3 5.32 6.6 6 10 C4.35 9.67 2.7 9.34 1 9 C1 8.34 1 7.68 1 7 C0.01 7 -0.98 7 -2 7 C-2.66 6.67 -3.32 6.34 -4 6 C-3.67 4.68 -3.34 3.36 -3 2 C-2.01 2 -1.02 2 0 2 C0 1.34 0 0.68 0 0 Z " fill="#2A286C" transform="translate(104,20)"/>
<path d="M0 0 C0 0.66 0 1.32 0 2 C-2.31 3.32 -4.62 4.64 -7 6 C-7 5.34 -7 4.68 -7 4 C-9.475 3.01 -9.475 3.01 -12 2 C-12 1.34 -12 0.68 -12 0 C-7.45950903 -2.20538133 -4.52381649 -2.26190825 0 0 Z " fill="#265A8D" transform="translate(116,55)"/>
<path d="M0 0 C1.19109375 -0.00386719 1.19109375 -0.00386719 2.40625 -0.0078125 C4.5 0.125 4.5 0.125 6.5 1.125 C6.17 1.785 5.84 2.445 5.5 3.125 C3.16842508 3.47041851 0.83491639 3.80294257 -1.5 4.125 C-2.49 4.785 -3.48 5.445 -4.5 6.125 C-4.5 5.465 -4.5 4.805 -4.5 4.125 C-5.469375 4.95 -6.43875 5.775 -7.4375 6.625 C-10.5 9.125 -10.5 9.125 -11.5 9.125 C-11.5 7.475 -11.5 5.825 -11.5 4.125 C-9.85 3.795 -8.2 3.465 -6.5 3.125 C-6.5 2.465 -6.5 1.805 -6.5 1.125 C-4.13386544 -0.05806728 -2.63219264 -0.00854608 0 0 Z " fill="#8BD9DD" transform="translate(94.5,48.875)"/>
<path d="M0 0 C1.546875 1.0209375 1.546875 1.0209375 3.125 2.0625 C6.07399705 3.77423963 6.86316837 4.00995139 10.4375 3.75 C11.283125 3.5025 12.12875 3.255 13 3 C13 3.66 13 4.32 13 5 C8.37802694 7.21854707 5.23175837 8.38281159 0 8 C0 5.36 0 2.72 0 0 Z " fill="#2B3977" transform="translate(103,56)"/>
<path d="M0 0 C0.66 0.33 1.32 0.66 2 1 C2.74482287 3.67259973 3.40322078 6.29694119 4 9 C4.33 10.32 4.66 11.64 5 13 C2.36 12.34 -0.28 11.68 -3 11 C-2.44894091 7.0507432 -1.61064629 3.65079826 0 0 Z " fill="#DDCA93" transform="translate(46,38)"/>
<path d="M0 0 C0.99 0 1.98 0 3 0 C3.66666667 1.33333333 4.33333333 2.66666667 5 4 C5.5878125 4.99 5.5878125 4.99 6.1875 6 C7.17413108 8.42863035 6.86626039 9.57447091 6 12 C4.68 12 3.36 12 2 12 C0.70756464 7.8803623 -0.26252625 4.33168317 0 0 Z " fill="#D3D4E3" transform="translate(103,89)"/>
<path d="M0 0 C2.97 0 5.94 0 9 0 C9 0.66 9 1.32 9 2 C8.01 2 7.02 2 6 2 C6 5.3 6 8.6 6 12 C5.01 12 4.02 12 3 12 C3 8.7 3 5.4 3 2 C2.01 2 1.02 2 0 2 C0 1.34 0 0.68 0 0 Z " fill="#E1E2ED" transform="translate(58,89)"/>
<path d="M0 0 C1.010625 0.0825 2.02125 0.165 3.0625 0.25 C3.7225 1.24 4.3825 2.23 5.0625 3.25 C3.5 4.8125 3.5 4.8125 1.0625 6.25 C-2.6875 5.9375 -2.6875 5.9375 -5.9375 5.25 C-3.54308339 0.30153901 -3.54308339 0.30153901 0 0 Z " fill="#E4C246" transform="translate(68.9375,22.75)"/>
<path d="M0 0 C1.98 1.65 3.96 3.3 6 5 C4.35 6.65 2.7 8.3 1 10 C-0.77706209 7.33440687 -1.87548273 4.9719385 -3 2 C-2.01 1.34 -1.02 0.68 0 0 Z " fill="#77D8E0" transform="translate(101,27)"/>
<path d="M0 0 C1.625 2 1.625 2 3 4 C0.36 4.33 -2.28 4.66 -5 5 C-5 5.66 -5 6.32 -5 7 C-4.34 7 -3.68 7 -3 7 C-3 7.66 -3 8.32 -3 9 C-7.25566547 10.16063604 -10.6835078 9.76173392 -15 9 C-15 8.67 -15 8.34 -15 8 C-11.535 7.505 -11.535 7.505 -8 7 C-7.938125 6.401875 -7.87625 5.80375 -7.8125 5.1875 C-6.54345853 1.77084988 -3.64481301 0 0 0 Z " fill="#9DDFE2" transform="translate(88,23)"/>
<path d="M0 0 C0.66 1.32 1.32 2.64 2 4 C2.66 4 3.32 4 4 4 C4.33 6.31 4.66 8.62 5 11 C0.125 10.125 0.125 10.125 -1 9 C-0.91062197 7.47480724 -0.75462854 5.95318071 -0.5625 4.4375 C-0.46066406 3.61121094 -0.35882813 2.78492188 -0.25390625 1.93359375 C-0.17011719 1.29550781 -0.08632813 0.65742187 0 0 Z " fill="#C61D26" transform="translate(55,54)"/>
<path d="M0 0 C0.99 0 1.98 0 3 0 C3 1.98 3 3.96 3 6 C4.32 6.33 5.64 6.66 7 7 C5.68 7 4.36 7 3 7 C3 8.65 3 10.3 3 12 C2.01 12 1.02 12 0 12 C0 8.04 0 4.08 0 0 Z " fill="#D9DAE8" transform="translate(91,89)"/>
<path d="M0 0 C3.68754757 0.49831724 5.60490662 1.10067643 8 4 C7 6 7 6 3.9375 7.125 C2.4834375 7.558125 2.4834375 7.558125 1 8 C0.67 5.36 0.34 2.72 0 0 Z " fill="#E06264" transform="translate(44,49)"/>
<path d="M0 0 C5.52677733 -0.19392201 9.75614911 0.2520497 15 2 C14.67 2.66 14.34 3.32 14 4 C11.03 3.67 8.06 3.34 5 3 C5 2.34 5 1.68 5 1 C4.01 1.495 4.01 1.495 3 2 C4.98 2.66 6.96 3.32 9 4 C8.01 5.485 8.01 5.485 7 7 C6.34 7 5.68 7 5 7 C5 6.34 5 5.68 5 5 C4.360625 4.731875 3.72125 4.46375 3.0625 4.1875 C1 3 1 3 0 0 Z " fill="#242268" transform="translate(87,12)"/>
<path d="M0 0 C0.66 0 1.32 0 2 0 C3.44074715 1.782129 4.80510649 3.62660276 6.125 5.5 C7.21167969 7.03140625 7.21167969 7.03140625 8.3203125 8.59375 C8.87460938 9.3878125 9.42890625 10.181875 10 11 C9.67 11.66 9.34 12.32 9 13 C8.52949219 12.51789063 8.05898437 12.03578125 7.57421875 11.5390625 C6.95160156 10.90742187 6.32898438 10.27578125 5.6875 9.625 C5.07261719 8.99851562 4.45773438 8.37203125 3.82421875 7.7265625 C1.91187472 5.81913393 1.91187472 5.81913393 -1 4 C-0.67 2.68 -0.34 1.36 0 0 Z " fill="#224079" transform="translate(91,67)"/>
<path d="M0 0 C2.64 0.33 5.28 0.66 8 1 C6.875 3.5 6.875 3.5 5 6 C1.8125 6.3125 1.8125 6.3125 -1 6 C-0.67 4.02 -0.34 2.04 0 0 Z " fill="#A53A47" transform="translate(84,65)"/>
<path d="M0 0 C-0.66 0 -1.32 0 -2 0 C-2 1.32 -2 2.64 -2 4 C-4.475 3.01 -4.475 3.01 -7 2 C-7 2.99 -7 3.98 -7 5 C-6.01 5.33 -5.02 5.66 -4 6 C-5.32 6.99 -6.64 7.98 -8 9 C-8 7.68 -8 6.36 -8 5 C-8.66 5 -9.32 5 -10 5 C-9.01906046 2.54765115 -8.31296172 1.2190732 -6.125 -0.3125 C-3.64990694 -1.1132654 -2.41712366 -0.86325845 0 0 Z " fill="#772142" transform="translate(81,49)"/>
<path d="M0 0 C1.98 0 3.96 0 6 0 C6.08226668 3.04386724 5.97608217 5.07175348 5 8 C3.35 8 1.7 8 0 8 C0 7.01 0 6.02 0 5 C1.32 5 2.64 5 4 5 C4 4.34 4 3.68 4 3 C2.68 3 1.36 3 0 3 C0 2.01 0 1.02 0 0 Z " fill="#27256A" transform="translate(71,91)"/>
<path d="M0 0 C0.33 0 0.66 0 1 0 C1 3.96 1 7.92 1 12 C-1 10 -1 10 -1.875 8 C-3.2363704 5.57978596 -4.46546555 5.01381378 -7 4 C-7 3.34 -7 2.68 -7 2 C-5.02 2 -3.04 2 -1 2 C-0.67 1.34 -0.34 0.68 0 0 Z " fill="#252367" transform="translate(136,89)"/>
<path d="M0 0 C0.99 0 1.98 0 3 0 C3 3.96 3 7.92 3 12 C2.01 12 1.02 12 0 12 C0 8.04 0 4.08 0 0 Z " fill="#E1E2ED" transform="translate(121,89)"/>
<path d="M0 0 C1.32 0 2.64 0 4 0 C4.38922918 1.28745036 4.76098036 2.58019597 5.125 3.875 C5.33382812 4.59429687 5.54265625 5.31359375 5.7578125 6.0546875 C5.83773437 6.69664063 5.91765625 7.33859375 6 8 C5.34 8.66 4.68 9.32 4 10 C3.34 8.68 2.68 7.36 2 6 C1.34 6.66 0.68 7.32 0 8 C0 5.36 0 2.72 0 0 Z " fill="#E4E6F0" transform="translate(109,89)"/>
<path d="M0 0 C2.475 0.99 2.475 0.99 5 2 C4.67 3.65 4.34 5.3 4 7 C5.32 7.66 6.64 8.32 8 9 C6.35 9.33 4.7 9.66 3 10 C2.34 7.69 1.68 5.38 1 3 C0.34 3.66 -0.32 4.32 -1 5 C-3.125 4.625 -3.125 4.625 -5 4 C-3.35 2.68 -1.7 1.36 0 0 Z " fill="#44A8BF" transform="translate(109,42)"/>
<path d="M0 0 C0.99 0 1.98 0 3 0 C3 3.96 3 7.92 3 12 C2.34 12 1.68 12 1 12 C1 10.02 1 8.04 1 6 C0.34 6 -0.32 6 -1 6 C-1.042721 4.33388095 -1.04063832 2.66617115 -1 1 C-0.67 0.67 -0.34 0.34 0 0 Z " fill="#EFF0F7" transform="translate(48,89)"/>
<path d="M0 0 C0.33 1.32 0.66 2.64 1 4 C-2.1964086 5.06546953 -4.65747276 5.07427838 -8 5 C-6.19780722 -0.02039417 -5.34443412 -1.60333024 0 0 Z " fill="#3F93B1" transform="translate(96,43)"/>
<path d="M0 0 C3.63 0.66 7.26 1.32 11 2 C11 2.33 11 2.66 11 3 C6.545 3.495 6.545 3.495 2 4 C2.33 5.98 2.66 7.96 3 10 C1.68 9.67 0.36 9.34 -1 9 C-0.67 6.03 -0.34 3.06 0 0 Z " fill="#E6C970" transform="translate(77,38)"/>
<path d="M0 0 C2 2 2 2 2.875 4 C4.2363704 6.42021404 5.46546555 6.98618622 8 8 C8 8.66 8 9.32 8 10 C6.02 9.34 4.04 8.68 2 8 C1.34 9.32 0.68 10.64 0 12 C0 8.04 0 4.08 0 0 Z " fill="#201E65" transform="translate(124,89)"/>
<path d="M0 0 C0.99 0 1.98 0 3 0 C3 3.96 3 7.92 3 12 C2.34 12 1.68 12 1 12 C1 9.69 1 7.38 1 5 C0.34 5 -0.32 5 -1 5 C-0.67 3.35 -0.34 1.7 0 0 Z " fill="#EFF1F8" transform="translate(32,89)"/>
<path d="M0 0 C0.33 0.99 0.66 1.98 1 3 C2.65 3.33 4.3 3.66 6 4 C5.67 4.66 5.34 5.32 5 6 C4.01 5.67 3.02 5.34 2 5 C-0.05893621 4.77674186 -2.12233653 4.59294241 -4.1875 4.4375 C-5.27417969 4.35371094 -6.36085937 4.26992188 -7.48046875 4.18359375 C-8.31191406 4.12300781 -9.14335938 4.06242187 -10 4 C-9.34 3.01 -8.68 2.02 -8 1 C-6.8553125 1.309375 -6.8553125 1.309375 -5.6875 1.625 C-2.78114056 2.33391203 -2.78114056 2.33391203 0 0 Z " fill="#A6EAE7" transform="translate(70,19)"/>
<path d="M0 0 C1.32 0.33 2.64 0.66 4 1 C3.125 4.875 3.125 4.875 2 6 C0.33382885 6.04063832 -1.33388095 6.042721 -3 6 C-3.66 4.68 -4.32 3.36 -5 2 C-2.83125748 2.50603992 -1.00032373 2.99983813 1 4 C0.67 2.68 0.34 1.36 0 0 Z " fill="#DDDEEA" transform="translate(131,95)"/>
<path d="M0 0 C1.9375 0.75 1.9375 0.75 4 2 C4.75 4.125 4.75 4.125 5 6 C3.35 6.66 1.7 7.32 0 8 C-1.125 2.25 -1.125 2.25 0 0 Z " fill="#3D9FB9" transform="translate(102,48)"/>
<path d="M0 0 C0.33 0.66 0.66 1.32 1 2 C0.01 2 -0.98 2 -2 2 C-2.33 3.32 -2.66 4.64 -3 6 C-4.9375 5.6875 -4.9375 5.6875 -7 5 C-7.33 4.01 -7.66 3.02 -8 2 C-4.77208445 -0.1519437 -3.71599191 -0.20086443 0 0 Z " fill="#E7D077" transform="translate(60,26)"/>
<path d="M0 0 C0.33 0 0.66 0 1 0 C2.12862175 5.36095333 2.09688221 10.55306686 2 16 C-1.26294968 11.10557548 -1.18065014 7.69047926 -1 2 C-0.67 1.34 -0.34 0.68 0 0 Z " fill="#245E8F" transform="translate(102,66)"/>
<path d="M0 0 C2.64 1.65 5.28 3.3 8 5 C5.61426621 6.89213369 3.92824652 8.02391783 1 9 C0.67 6.03 0.34 3.06 0 0 Z " fill="#F2E3AE" transform="translate(47,36)"/>
<path d="M0 0 C0.33 2.64 0.66 5.28 1 8 C-0.98 7.01 -2.96 6.02 -5 5 C-5 4.01 -5 3.02 -5 2 C-2 0 -2 0 0 0 Z " fill="#EBDB9D" transform="translate(70,36)"/>
<path d="M0 0 C2.69082872 0.17635452 5.32851446 0.61835921 8 1 C7.67 1.66 7.34 2.32 7 3 C5.68 3 4.36 3 3 3 C2.67 4.65 2.34 6.3 2 8 C1.34 7.67 0.68 7.34 0 7 C-0.6875 4 -0.6875 4 -1 1 C-0.67 0.67 -0.34 0.34 0 0 Z " fill="#45D6DC" transform="translate(82,31)"/>
<path d="M0 0 C3.76687864 1.88343932 4.79421646 2.69132469 7 6 C4.525 7.485 4.525 7.485 2 9 C1.34 6.03 0.68 3.06 0 0 Z " fill="#040152" transform="translate(112,22)"/>
<path d="M0 0 C2 0 2 0 3.625 1.5 C4.07875 1.995 4.5325 2.49 5 3 C3.84826645 5.46800047 2.95216435 7.04783565 1 9 C1 8.34 1 7.68 1 7 C0.34 7 -0.32 7 -1 7 C-1.66 5.02 -2.32 3.04 -3 1 C-2.34 1 -1.68 1 -1 1 C-0.67 1.99 -0.34 2.98 0 4 C0 2.68 0 1.36 0 0 Z " fill="#E6887F" transform="translate(58,51)"/>
<path d="M0 0 C0.66 1.32 1.32 2.64 2 4 C-0.86177057 5.43088528 -2.93375773 4.59991697 -6 4 C-5.34 5.65 -4.68 7.3 -4 9 C-5.65 9 -7.3 9 -9 9 C-8.34 7.02 -7.68 5.04 -7 3 C-3.535 2.505 -3.535 2.505 0 2 C0 1.34 0 0.68 0 0 Z " fill="#9FE9ED" transform="translate(92,31)"/>
<path d="M0 0 C0.8971875 0.309375 0.8971875 0.309375 1.8125 0.625 C1.25 2.5625 1.25 2.5625 -0.1875 4.625 C-3.8125 5.375 -3.8125 5.375 -7.1875 5.625 C-5.69046729 2.17030914 -4.27938051 -0.73360809 0 0 Z " fill="#4692AE" transform="translate(91.1875,59.375)"/>
<path d="M0 0 C0.66 0 1.32 0 2 0 C5 3.46153846 5 3.46153846 5 6 C3.68 6 2.36 6 1 6 C0.67 6.66 0.34 7.32 0 8 C-1 7 -1 7 -1.125 4 C-1 1 -1 1 0 0 Z " fill="#52CAD5" transform="translate(88,53)"/>
<path d="M0 0 C0.66 0.99 1.32 1.98 2 3 C1.01 3 0.02 3 -1 3 C-0.67 4.98 -0.34 6.96 0 9 C-1.32 8.67 -2.64 8.34 -4 8 C-4.25 5.6875 -4.25 5.6875 -4 3 C-2 1.1875 -2 1.1875 0 0 Z " fill="#32779F" transform="translate(106,33)"/>
<path d="M0 0 C3 1 3 1 4.1875 3.0625 C4.455625 3.701875 4.72375 4.34125 5 5 C4 6 4 6 0.9375 6.0625 C-0.5165625 6.0315625 -0.5165625 6.0315625 -2 6 C-1.125 1.125 -1.125 1.125 0 0 Z " fill="#E3CA66" transform="translate(50,31)"/>
<path d="M0 0 C2.46800047 1.15173355 4.04783565 2.04783565 6 4 C5.625 6.125 5.625 6.125 5 8 C4.67 7.01 4.34 6.02 4 5 C3.34 5 2.68 5 2 5 C1.67 6.32 1.34 7.64 1 9 C0.34 8.67 -0.32 8.34 -1 8 C-1 5.16032769 -0.59732819 2.76264289 0 0 Z " fill="#2C6594" transform="translate(95,53)"/>
<path d="M0 0 C0.99 0.66 1.98 1.32 3 2 C2.125 6.75 2.125 6.75 1 9 C1.66 9.33 2.32 9.66 3 10 C1.125 10.625 1.125 10.625 -1 11 C-1.66 10.34 -2.32 9.68 -3 9 C-2.34 8.34 -1.68 7.68 -1 7 C-1.66 6.67 -2.32 6.34 -3 6 C-2.01 5.34 -1.02 4.68 0 4 C0 2.68 0 1.36 0 0 Z " fill="#2C2C6F" transform="translate(115,34)"/>
<path d="M0 0 C0.99 0 1.98 0 3 0 C3.8125 1.6875 3.8125 1.6875 4 4 C1.5625 6.75 1.5625 6.75 -1 9 C-1.07427838 5.65747276 -1.06546953 3.1964086 0 0 Z " fill="#D8070A" transform="translate(80,59)"/>
<path d="M0 0 C0.66 0.66 1.32 1.32 2 2 C1.34 2 0.68 2 0 2 C0 2.66 0 3.32 0 4 C-3.3 4 -6.6 4 -10 4 C-9 2 -9 2 -7.00390625 1.296875 C-6.19824219 1.11640625 -5.39257812 0.9359375 -4.5625 0.75 C-3.75941406 0.55921875 -2.95632812 0.3684375 -2.12890625 0.171875 C-1.07509766 0.08679687 -1.07509766 0.08679687 0 0 Z " fill="#4AC8D4" transform="translate(102,46)"/>
<path d="M0 0 C2.64 0.66 5.28 1.32 8 2 C6.875 3.5 6.875 3.5 5 5 C1.8125 5.1875 1.8125 5.1875 -1 5 C-0.67 3.35 -0.34 1.7 0 0 Z " fill="#1E5287" transform="translate(99,41)"/>
<path d="M0 0 C0.99 0.33 1.98 0.66 3 1 C0.69 3.64 -1.62 6.28 -4 9 C-4.66 8.67 -5.32 8.34 -6 8 C-4.26440562 4.942048 -2.61527381 2.36620011 0 0 Z " fill="#201356" transform="translate(63,37)"/>
<path d="M0 0 C1.98 0 3.96 0 6 0 C5.67 1.32 5.34 2.64 5 4 C4.01 3.67 3.02 3.34 2 3 C2 3.99 2 4.98 2 6 C0.68 6.33 -0.64 6.66 -2 7 C-1.34 4.69 -0.68 2.38 0 0 Z " fill="#42B2C7" transform="translate(93,36)"/>
<path d="M0 0 C5.625 -0.25 5.625 -0.25 9 2 C9 2.66 9 3.32 9 4 C3.48 4.368 3.48 4.368 1.125 2.5625 C0 1 0 1 0 0 Z " fill="#41E0E3" transform="translate(82,27)"/>
<path d="M0 0 C0.66 0 1.32 0 2 0 C2.33 1.65 2.66 3.3 3 5 C1.25 6.5625 1.25 6.5625 -1 8 C-3.25 7.6875 -3.25 7.6875 -5 7 C-3.35 6.34 -1.7 5.68 0 5 C-0.2784375 4.0409375 -0.2784375 4.0409375 -0.5625 3.0625 C-0.706875 2.381875 -0.85125 1.70125 -1 1 C-0.67 0.67 -0.34 0.34 0 0 Z " fill="#0D0D59" transform="translate(116,52)"/>
<path d="M0 0 C0.66 0 1.32 0 2 0 C2.66 2.31 3.32 4.62 4 7 C2.02 6.34 0.04 5.68 -2 5 C-1.34 3.35 -0.68 1.7 0 0 Z " fill="#E8E2A5" transform="translate(79,33)"/>
<path d="M0 0 C6.75 1.625 6.75 1.625 9 5 C7.80375 4.62875 6.6075 4.2575 5.375 3.875 C1.34606752 2.84267566 -1.15330304 3.26898637 -5 5 C-4.67 4.01 -4.34 3.02 -4 2 C-2.68 2 -1.36 2 0 2 C0 1.34 0 0.68 0 0 Z " fill="#27256A" transform="translate(104,16)"/>
<path d="M0 0 C2.31 0 4.62 0 7 0 C7.66 1.32 8.32 2.64 9 4 C6.69 3.67 4.38 3.34 2 3 C2 2.34 2 1.68 2 1 C1.34 0.67 0.68 0.34 0 0 Z " fill="#C4C5D9" transform="translate(80,89)"/>
<path d="M0 0 C1.65 0.99 3.3 1.98 5 3 C4.67 4.32 4.34 5.64 4 7 C2.68 6.67 1.36 6.34 0 6 C0 4.02 0 2.04 0 0 Z " fill="#0F2067" transform="translate(103,56)"/>
<path d="M0 0 C1.32 0.33 2.64 0.66 4 1 C4 1.66 4 2.32 4 3 C1.69 4.32 -0.62 5.64 -3 7 C-3.33 6.01 -3.66 5.02 -4 4 C-3.01 3.67 -2.02 3.34 -1 3 C-0.67 2.01 -0.34 1.02 0 0 Z " fill="#3F6997" transform="translate(112,54)"/>
<path d="M0 0 C1.32 0 2.64 0 4 0 C4 0.66 4 1.32 4 2 C5.32 2.66 6.64 3.32 8 4 C3.25 5 3.25 5 1 5 C0.67 3.35 0.34 1.7 0 0 Z " fill="#50C9D5" transform="translate(106,49)"/>
<path d="M0 0 C0.99 0.33 1.98 0.66 3 1 C5.00875442 0.72428861 7.01178687 0.39764263 9 0 C8 2 8 2 5.75 3.1875 C2.69751418 4.08937081 1.02265546 3.86361585 -2 3 C-1.34 2.01 -0.68 1.02 0 0 Z " fill="#2B215F" transform="translate(85,47)"/>
<path d="M0 0 C0.66 0.66 1.32 1.32 2 2 C1.625 4.625 1.625 4.625 1 7 C0.01 7.33 -0.98 7.66 -2 8 C-3 5 -3 5 -2 2 C-1.34 2 -0.68 2 0 2 C0 1.34 0 0.68 0 0 Z " fill="#D78819" transform="translate(83,42)"/>
<path d="M0 0 C1.32 0 2.64 0 4 0 C4 1.65 4 3.3 4 5 C2.35 4.67 0.7 4.34 -1 4 C-0.67 2.68 -0.34 1.36 0 0 Z " fill="#13457D" transform="translate(96,119)"/>
<path d="M0 0 C1.32 0 2.64 0 4 0 C4 1.65 4 3.3 4 5 C2.35 4.67 0.7 4.34 -1 4 C-0.67 2.68 -0.34 1.36 0 0 Z " fill="#165185" transform="translate(59,107)"/>
<path d="M0 0 C0.33 0 0.66 0 1 0 C1.125 5.75 1.125 5.75 0 8 C-1.65 7.67 -3.3 7.34 -5 7 C-4.34 6.67 -3.68 6.34 -3 6 C-1.90833725 4.06669397 -1.90833725 4.06669397 -1 2 C-0.67 1.34 -0.34 0.68 0 0 Z " fill="#E17175" transform="translate(83,63)"/>
<path d="M0 0 C1.19109375 -0.00386719 1.19109375 -0.00386719 2.40625 -0.0078125 C4.5 0.125 4.5 0.125 6.5 1.125 C6.17 1.785 5.84 2.445 5.5 3.125 C1.54 3.125 -2.42 3.125 -6.5 3.125 C-6.5 2.465 -6.5 1.805 -6.5 1.125 C-4.13386544 -0.05806728 -2.63219264 -0.00854608 0 0 Z " fill="#79DCE3" transform="translate(94.5,48.875)"/>
<path d="M0 0 C0.66 1.98 1.32 3.96 2 6 C-0.31 5.34 -2.62 4.68 -5 4 C-4.67 3.01 -4.34 2.02 -4 1 C-2 0 -2 0 0 0 Z " fill="#F09793" transform="translate(49,45)"/>
<path d="M0 0 C0.66 0.33 1.32 0.66 2 1 C0.68 3.31 -0.64 5.62 -2 8 C-4 5 -4 5 -4 2 C-2.125 0.9375 -2.125 0.9375 0 0 Z " fill="#DF7E31" transform="translate(53,42)"/>
<path d="M0 0 C0.66 2.31 1.32 4.62 2 7 C-0.4375 6.25 -0.4375 6.25 -3 5 C-3.8125 2.875 -3.8125 2.875 -4 1 C-2 0 -2 0 0 0 Z " fill="#6DDAE1" transform="translate(92,21)"/>
<path d="M0 0 C-0.66 1.32 -1.32 2.64 -2 4 C-4.31 4 -6.62 4 -9 4 C-4.5 0 -4.5 0 0 0 Z " fill="#1F256A" transform="translate(85,12)"/>
<path d="M0 0 C0.66 0.33 1.32 0.66 2 1 C2.4140625 3.06640625 2.4140625 3.06640625 2.625 5.5625 C2.69976562 6.38878906 2.77453125 7.21507812 2.8515625 8.06640625 C2.92503906 9.02353516 2.92503906 9.02353516 3 10 C0.22509624 7.44141938 -0.60914295 5.81085622 -1 2 C-0.67 1.34 -0.34 0.68 0 0 Z " fill="#1A4B82" transform="translate(100,52)"/>
<path d="M0 0 C1.2065625 0.0309375 1.2065625 0.0309375 2.4375 0.0625 C2.1075 1.0525 1.7775 2.0425 1.4375 3.0625 C0.7775 3.0625 0.1175 3.0625 -0.5625 3.0625 C-0.5625 4.0525 -0.5625 5.0425 -0.5625 6.0625 C-1.2225 6.0625 -1.8825 6.0625 -2.5625 6.0625 C-2.94468767 4.40635343 -3.27645102 2.73792976 -3.5625 1.0625 C-2.5625 0.0625 -2.5625 0.0625 0 0 Z " fill="#E29E17" transform="translate(81.5625,40.9375)"/>
<path d="M0 0 C0 0.99 0 1.98 0 3 C-0.66 3 -1.32 3 -2 3 C-2.33 4.65 -2.66 6.3 -3 8 C-3.33 7.01 -3.66 6.02 -4 5 C-3.67 4.34 -3.34 3.68 -3 3 C-4.65 2.67 -6.3 2.34 -8 2 C-8 1.67 -8 1.34 -8 1 C-5.23735711 0.40267181 -2.83967231 0 0 0 Z " fill="#2F2D6F" transform="translate(115,31)"/>
<path d="M0 0 C0.99 0 1.98 0 3 0 C3.33 1.32 3.66 2.64 4 4 C2.35 4.33 0.7 4.66 -1 5 C-0.67 3.35 -0.34 1.7 0 0 Z " fill="#13477E" transform="translate(98,107)"/>
<path d="M0 0 C1.98 0.495 1.98 0.495 4 1 C3.67 2.32 3.34 3.64 3 5 C1.68 4.67 0.36 4.34 -1 4 C-0.67 2.68 -0.34 1.36 0 0 Z " fill="#154C82" transform="translate(35,107)"/>
<path d="M0 0 C0.66 0 1.32 0 2 0 C2.1875 2.375 2.1875 2.375 2 5 C1.01 5.66 0.02 6.32 -1 7 C-1.625 4.625 -1.625 4.625 -2 2 C-1.34 1.34 -0.68 0.68 0 0 Z " fill="#A06C6F" transform="translate(85,56)"/>
<path d="M0 0 C1.65 1.65 3.3 3.3 5 5 C2.16032769 5 -0.23735711 4.59732819 -3 4 C-3 3.34 -3 2.68 -3 2 C-2.01 1.34 -1.02 0.68 0 0 Z " fill="#DBAB33" transform="translate(60,44)"/>
<path d="M0 0 C0.66 0.33 1.32 0.66 2 1 C2 1.66 2 2.32 2 3 C2.66 3 3.32 3 4 3 C3.67 4.32 3.34 5.64 3 7 C1.68 7 0.36 7 -1 7 C-0.67 4.69 -0.34 2.38 0 0 Z " fill="#CECFE0" transform="translate(114,94)"/>
<path d="M0 0 C2.31 0 4.62 0 7 0 C6.01 1.98 5.02 3.96 4 6 C1.2160817 4.60804085 1.02101003 2.84424221 0 0 Z " fill="#F7EECD" transform="translate(73,32)"/>
<path d="M0 0 C0.33 1.98 0.66 3.96 1 6 C-3.875 3.25 -3.875 3.25 -5 1 C-3 0 -3 0 0 0 Z " fill="#3C82A7" transform="translate(98,66)"/>
<path d="M0 0 C0.66 0.33 1.32 0.66 2 1 C2 1.99 2 2.98 2 4 C0.35 4.66 -1.3 5.32 -3 6 C-2.42655063 3.13275314 -2.1385485 2.1385485 0 0 Z " fill="#E8BD54" transform="translate(62,30)"/>
<path d="M0 0 C0.99 0.33 1.98 0.66 3 1 C2.67 2.32 2.34 3.64 2 5 C0.02 5 -1.96 5 -4 5 C-2.68 3.35 -1.36 1.7 0 0 Z " fill="#41C3D1" transform="translate(78,26)"/>
<path d="M0 0 C0.99 0.99 1.98 1.98 3 3 C1.25 6.875 1.25 6.875 -1 8 C-0.67 5.36 -0.34 2.72 0 0 Z " fill="#CC3B45" transform="translate(75,58)"/>
<path d="M0 0 C0.28875 0.639375 0.5775 1.27875 0.875 1.9375 C1.82823451 4.15206079 1.82823451 4.15206079 4 5 C3.34 5 2.68 5 2 5 C1.67 6.32 1.34 7.64 1 9 C-1.09230769 4.56923077 -1.09230769 4.56923077 -0.625 1.6875 C-0.41875 1.130625 -0.2125 0.57375 0 0 Z " fill="#D34A51" transform="translate(55,54)"/>
<path d="M0 0 C1.65 0 3.3 0 5 0 C5.66 1.65 6.32 3.3 7 5 C4.69 4.01 2.38 3.02 0 2 C0 1.34 0 0.68 0 0 Z " fill="#3EB8C9" transform="translate(94,31)"/>
<path d="M0 0 C0.99 0.33 1.98 0.66 3 1 C-2.14285714 5.42857143 -2.14285714 5.42857143 -6 6 C-5.67 5.34 -5.34 4.68 -5 4 C-4.34 4 -3.68 4 -3 4 C-2.67 3.01 -2.34 2.02 -2 1 C-1.34 0.67 -0.68 0.34 0 0 Z " fill="#2B6996" transform="translate(87,20)"/>
<path d="M0 0 C2.97 0.495 2.97 0.495 6 1 C6 1.66 6 2.32 6 3 C3.69 3 1.38 3 -1 3 C-0.67 2.01 -0.34 1.02 0 0 Z " fill="#46DFE3" transform="translate(72,19)"/>
<path d="M0 0 C0.66 0 1.32 0 2 0 C2.66 0.99 3.32 1.98 4 3 C6.56282742 3.72965366 6.56282742 3.72965366 9 4 C8.01 5.485 8.01 5.485 7 7 C6.34 7 5.68 7 5 7 C5 6.34 5 5.68 5 5 C4.360625 4.731875 3.72125 4.46375 3.0625 4.1875 C1 3 1 3 0 0 Z " fill="#44427D" transform="translate(87,12)"/>
<path d="M0 0 C0.33 0.99 0.66 1.98 1 3 C1.66 3 2.32 3 3 3 C3 4.98 3 6.96 3 9 C0.9375 7.3125 0.9375 7.3125 -1 5 C-0.75 2.25 -0.75 2.25 0 0 Z " fill="#B6B6CF" transform="translate(46,92)"/>
<path d="M0 0 C0.66 0.33 1.32 0.66 2 1 C1.34 2.98 0.68 4.96 0 7 C-0.66 7 -1.32 7 -2 7 C-2.6875 5.1875 -2.6875 5.1875 -3 3 C-1.5625 1.25 -1.5625 1.25 0 0 Z " fill="#DD8289" transform="translate(79,54)"/>
<path d="M0 0 C0 1.65 0 3.3 0 5 C-3.875 3.25 -3.875 3.25 -5 1 C-3 0 -3 0 0 0 Z " fill="#690F3A" transform="translate(51,55)"/>
<path d="M0 0 C2.475 0.99 2.475 0.99 5 2 C4.67 2.66 4.34 3.32 4 4 C2.02 4 0.04 4 -2 4 C-1.34 2.68 -0.68 1.36 0 0 Z " fill="#306990" transform="translate(90,44)"/>
<path d="M0 0 C1.32 0.33 2.64 0.66 4 1 C3.67 2.65 3.34 4.3 3 6 C2.01 5.67 1.02 5.34 0 5 C0 3.35 0 1.7 0 0 Z " fill="#ECCB80" transform="translate(55,37)"/>
<path d="M0 0 C0.66 0 1.32 0 2 0 C2.33 1.32 2.66 2.64 3 4 C0.525 5.485 0.525 5.485 -2 7 C-1.34 4.69 -0.68 2.38 0 0 Z " fill="#040252" transform="translate(113,34)"/>
<path d="M0 0 C0.66 0 1.32 0 2 0 C3.625 2 3.625 2 5 4 C2.69 4 0.38 4 -2 4 C-1.34 2.68 -0.68 1.36 0 0 Z " fill="#AFEDF0" transform="translate(86,23)"/>
</svg>
